<mxfile host="app.diagrams.net" modified="2024-06-04T11:15:25.011Z" agent="Mozilla/5.0 (Windows NT 10.0; Win64; x64) AppleWebKit/537.36 (KHTML, like Gecko) Chrome/125.0.0.0 Safari/537.36" etag="vM8b0UYIme3ve05m1N48" version="24.4.13" type="github">
  <diagram name="Page-1" id="CkdtYTVWs0D_aoovY7cm">
    <mxGraphModel dx="2412" dy="1854" grid="1" gridSize="10" guides="1" tooltips="1" connect="1" arrows="1" fold="1" page="1" pageScale="1" pageWidth="850" pageHeight="1100" math="0" shadow="0">
      <root>
        <mxCell id="0" />
        <mxCell id="1" parent="0" />
        <mxCell id="0bxhLpbx-PE3LNM0eR6W-1" value="&lt;p style=&quot;margin:0px;margin-top:4px;text-align:center;text-decoration:underline;&quot;&gt;&lt;b&gt;cookTempest: Concours&lt;br&gt;&lt;/b&gt;&lt;/p&gt;&lt;hr size=&quot;1&quot; style=&quot;border-style:solid;&quot;&gt;&lt;p style=&quot;margin:0px;margin-left:8px;&quot;&gt;id = 27&lt;/p&gt;&lt;p style=&quot;margin:0px;margin-left:8px;&quot;&gt;&lt;br&gt;&lt;/p&gt;&lt;p style=&quot;margin:0px;margin-left:8px;&quot;&gt;nom = &quot;cookTempest&quot;&lt;/p&gt;&lt;p style=&quot;margin:0px;margin-left:8px;&quot;&gt;&lt;br&gt;&lt;/p&gt;&lt;div&gt;&amp;nbsp; description = &quot;Concours de cuisine acharné&quot;&lt;/div&gt;&lt;div&gt;&lt;br&gt;&lt;/div&gt;&lt;div&gt;&amp;nbsp; dateDebut = new Date(2024, 7, 7, 14 h, 0)&lt;/div&gt;&lt;div&gt;&lt;br&gt;&lt;/div&gt;&lt;div&gt;&amp;nbsp; dateFin = new Date(dateDebut + duree)&lt;/div&gt;" style="verticalAlign=top;align=left;overflow=fill;html=1;whiteSpace=wrap;labelBackgroundColor=none;fillColor=#F5AB50;strokeColor=#909090;fontColor=#1A1A1A;" vertex="1" parent="1">
          <mxGeometry x="-5" y="-860" width="430" height="190" as="geometry" />
        </mxCell>
        <mxCell id="d4wZj_8_hUFDJzm03jYd-7" value="&lt;p style=&quot;margin:0px;margin-top:4px;text-align:center;text-decoration:underline;&quot;&gt;&lt;b&gt;concours: Concours&lt;br&gt;&lt;/b&gt;&lt;/p&gt;&lt;hr size=&quot;1&quot; style=&quot;border-style:solid;&quot;&gt;&lt;p style=&quot;margin:0px;margin-left:8px;&quot;&gt;id = 0&lt;/p&gt;&lt;p style=&quot;margin:0px;margin-left:8px;&quot;&gt;&lt;br&gt;&lt;/p&gt;&lt;p style=&quot;margin:0px;margin-left:8px;&quot;&gt;nom = &quot;nom donné par l&#39;utilisateur&quot;&lt;/p&gt;&lt;p style=&quot;margin:0px;margin-left:8px;&quot;&gt;&lt;br&gt;&lt;/p&gt;&lt;div&gt;&amp;nbsp; description = &quot;description donnée par l&#39;utilisateur&quot;&lt;/div&gt;&lt;div&gt;&lt;br&gt;&lt;/div&gt;&lt;div&gt;&amp;nbsp; dateDebut = new Date(year, month, date, heure (donné par l&#39;utilisateur), 0)&lt;/div&gt;&lt;div&gt;&lt;br&gt;&lt;/div&gt;&lt;div&gt;&amp;nbsp; dateFin = new Date(dateDebut + duree)&lt;/div&gt;" style="verticalAlign=top;align=left;overflow=fill;html=1;whiteSpace=wrap;labelBackgroundColor=none;fillColor=#F5AB50;strokeColor=#909090;fontColor=#1A1A1A;" parent="1" vertex="1">
          <mxGeometry x="10" y="-1090" width="430" height="190" as="geometry" />
        </mxCell>
        <mxCell id="d4wZj_8_hUFDJzm03jYd-10" value="" style="endArrow=none;html=1;rounded=0;entryX=-0.006;entryY=0.251;entryDx=0;entryDy=0;exitX=1;exitY=0.25;exitDx=0;exitDy=0;entryPerimeter=0;labelBackgroundColor=none;strokeColor=#182E3E;fontColor=default;" parent="1" source="d4wZj_8_hUFDJzm03jYd-7" target="d4wZj_8_hUFDJzm03jYd-14" edge="1">
          <mxGeometry width="50" height="50" relative="1" as="geometry">
            <mxPoint x="490" y="-930" as="sourcePoint" />
            <mxPoint x="690" y="-1042.5" as="targetPoint" />
          </mxGeometry>
        </mxCell>
        <mxCell id="d4wZj_8_hUFDJzm03jYd-12" value="&lt;div&gt;Partenaire&lt;/div&gt;" style="edgeLabel;html=1;align=center;verticalAlign=middle;resizable=0;points=[];labelBackgroundColor=none;fontColor=#1A1A1A;" parent="d4wZj_8_hUFDJzm03jYd-10" vertex="1" connectable="0">
          <mxGeometry x="0.82" y="-1" relative="1" as="geometry">
            <mxPoint x="-19" y="-8" as="offset" />
          </mxGeometry>
        </mxCell>
        <mxCell id="d4wZj_8_hUFDJzm03jYd-13" value="&lt;div&gt;concours&lt;/div&gt;" style="edgeLabel;html=1;align=center;verticalAlign=middle;resizable=0;points=[];labelBackgroundColor=none;fontColor=#1A1A1A;" parent="d4wZj_8_hUFDJzm03jYd-10" vertex="1" connectable="0">
          <mxGeometry x="-0.5667" relative="1" as="geometry">
            <mxPoint x="-15" y="-7" as="offset" />
          </mxGeometry>
        </mxCell>
        <mxCell id="d4wZj_8_hUFDJzm03jYd-14" value="&lt;p style=&quot;margin:0px;margin-top:4px;text-align:center;text-decoration:underline;&quot;&gt;&lt;b&gt;partenaire1 : Partenaire &lt;/b&gt;&lt;/p&gt;&lt;hr size=&quot;1&quot; style=&quot;border-style:solid;&quot;&gt;&lt;p style=&quot;margin:0px;margin-left:8px;&quot;&gt;id = 0&lt;/p&gt;&lt;p style=&quot;margin:0px;margin-left:8px;&quot;&gt;&lt;br&gt;&lt;/p&gt;&lt;p style=&quot;margin:0px;margin-left:8px;&quot;&gt;nom = &lt;br&gt;&lt;/p&gt;" style="verticalAlign=top;align=left;overflow=fill;html=1;whiteSpace=wrap;labelBackgroundColor=none;fillColor=#F5AB50;strokeColor=#909090;fontColor=#1A1A1A;" parent="1" vertex="1">
          <mxGeometry x="650" y="-1090" width="220" height="180" as="geometry" />
        </mxCell>
        <mxCell id="d4wZj_8_hUFDJzm03jYd-16" value="&lt;p style=&quot;margin:0px;margin-top:4px;text-align:center;text-decoration:underline;&quot;&gt;&lt;b&gt;categorie : Categorie &lt;/b&gt;&lt;/p&gt;&lt;hr size=&quot;1&quot; style=&quot;border-style:solid;&quot;&gt;&amp;nbsp; nom = &quot;Italien&quot;" style="verticalAlign=top;align=left;overflow=fill;html=1;whiteSpace=wrap;labelBackgroundColor=none;fillColor=#F5AB50;strokeColor=#909090;fontColor=#1A1A1A;" parent="1" vertex="1">
          <mxGeometry x="650" y="-850" width="220" height="80" as="geometry" />
        </mxCell>
        <mxCell id="d4wZj_8_hUFDJzm03jYd-17" value="" style="endArrow=none;html=1;rounded=0;entryX=0;entryY=0.25;entryDx=0;entryDy=0;exitX=1;exitY=0.75;exitDx=0;exitDy=0;labelBackgroundColor=none;strokeColor=#182E3E;fontColor=default;" parent="1" source="d4wZj_8_hUFDJzm03jYd-7" target="d4wZj_8_hUFDJzm03jYd-16" edge="1">
          <mxGeometry width="50" height="50" relative="1" as="geometry">
            <mxPoint x="450" y="-890" as="sourcePoint" />
            <mxPoint x="657" y="-890" as="targetPoint" />
          </mxGeometry>
        </mxCell>
        <mxCell id="d4wZj_8_hUFDJzm03jYd-18" value="categorie" style="edgeLabel;html=1;align=center;verticalAlign=middle;resizable=0;points=[];labelBackgroundColor=none;fontColor=#1A1A1A;" parent="d4wZj_8_hUFDJzm03jYd-17" vertex="1" connectable="0">
          <mxGeometry x="0.82" y="-1" relative="1" as="geometry">
            <mxPoint x="-19" y="-8" as="offset" />
          </mxGeometry>
        </mxCell>
        <mxCell id="d4wZj_8_hUFDJzm03jYd-19" value="&lt;div&gt;concours&lt;/div&gt;" style="edgeLabel;html=1;align=center;verticalAlign=middle;resizable=0;points=[];labelBackgroundColor=none;fontColor=#1A1A1A;" parent="d4wZj_8_hUFDJzm03jYd-17" vertex="1" connectable="0">
          <mxGeometry x="-0.5667" relative="1" as="geometry">
            <mxPoint x="-15" y="-7" as="offset" />
          </mxGeometry>
        </mxCell>
        <mxCell id="0bxhLpbx-PE3LNM0eR6W-2" value="" style="endArrow=none;html=1;rounded=0;exitX=1;exitY=0.5;exitDx=0;exitDy=0;entryX=-0.019;entryY=0.546;entryDx=0;entryDy=0;entryPerimeter=0;labelBackgroundColor=none;strokeColor=#182E3E;fontColor=default;" edge="1" parent="1" source="0bxhLpbx-PE3LNM0eR6W-1" target="0bxhLpbx-PE3LNM0eR6W-5">
          <mxGeometry width="50" height="50" relative="1" as="geometry">
            <mxPoint x="470" y="-620" as="sourcePoint" />
            <mxPoint x="820" y="-510" as="targetPoint" />
          </mxGeometry>
        </mxCell>
        <mxCell id="0bxhLpbx-PE3LNM0eR6W-3" value="categorie" style="edgeLabel;html=1;align=center;verticalAlign=middle;resizable=0;points=[];labelBackgroundColor=none;fontColor=#1A1A1A;" vertex="1" connectable="0" parent="0bxhLpbx-PE3LNM0eR6W-2">
          <mxGeometry x="0.82" y="-1" relative="1" as="geometry">
            <mxPoint x="-19" y="-8" as="offset" />
          </mxGeometry>
        </mxCell>
        <mxCell id="0bxhLpbx-PE3LNM0eR6W-4" value="&lt;div&gt;concours&lt;/div&gt;" style="edgeLabel;html=1;align=center;verticalAlign=middle;resizable=0;points=[];labelBackgroundColor=none;fontColor=#1A1A1A;" vertex="1" connectable="0" parent="0bxhLpbx-PE3LNM0eR6W-2">
          <mxGeometry x="-0.5667" relative="1" as="geometry">
            <mxPoint x="-15" y="-7" as="offset" />
          </mxGeometry>
        </mxCell>
        <mxCell id="0bxhLpbx-PE3LNM0eR6W-5" value="&lt;p style=&quot;margin:0px;margin-top:4px;text-align:center;text-decoration:underline;&quot;&gt;&lt;b&gt;categorieIt :Categorie&lt;/b&gt;&lt;/p&gt;&lt;hr size=&quot;1&quot; style=&quot;border-style:solid;&quot;&gt;&lt;p style=&quot;margin:0px;margin-left:8px;&quot;&gt;&lt;span style=&quot;background-color: initial;&quot;&gt;nom = &quot;Italien&quot;&lt;/span&gt;&lt;br&gt;&lt;/p&gt;&lt;p style=&quot;margin:0px;margin-left:8px;&quot;&gt;&lt;span style=&quot;background-color: initial;&quot;&gt;&lt;br&gt;&lt;/span&gt;&lt;/p&gt;&lt;p style=&quot;margin:0px;margin-left:8px;&quot;&gt;&lt;span style=&quot;background-color: initial;&quot;&gt;sous-catégories = [&quot;pâtes&quot;, &quot;spaghetti&quot;]&lt;/span&gt;&lt;/p&gt;" style="verticalAlign=top;align=left;overflow=fill;html=1;whiteSpace=wrap;labelBackgroundColor=none;fillColor=#F5AB50;strokeColor=#909090;fontColor=#1A1A1A;" vertex="1" parent="1">
          <mxGeometry x="770" y="-460" width="220" height="160" as="geometry" />
        </mxCell>
        <mxCell id="0bxhLpbx-PE3LNM0eR6W-6" value="" style="endArrow=none;html=1;rounded=0;exitX=1;exitY=0.25;exitDx=0;exitDy=0;entryX=0;entryY=0.5;entryDx=0;entryDy=0;labelBackgroundColor=none;strokeColor=#182E3E;fontColor=default;" edge="1" parent="1" source="0bxhLpbx-PE3LNM0eR6W-1" target="0bxhLpbx-PE3LNM0eR6W-9">
          <mxGeometry width="50" height="50" relative="1" as="geometry">
            <mxPoint x="470" y="-657" as="sourcePoint" />
            <mxPoint x="700" y="-672" as="targetPoint" />
          </mxGeometry>
        </mxCell>
        <mxCell id="0bxhLpbx-PE3LNM0eR6W-7" value="&lt;div&gt;Partenaire&lt;/div&gt;" style="edgeLabel;html=1;align=center;verticalAlign=middle;resizable=0;points=[];labelBackgroundColor=none;fontColor=#1A1A1A;" vertex="1" connectable="0" parent="0bxhLpbx-PE3LNM0eR6W-6">
          <mxGeometry x="0.82" y="-1" relative="1" as="geometry">
            <mxPoint x="-20" y="-8" as="offset" />
          </mxGeometry>
        </mxCell>
        <mxCell id="0bxhLpbx-PE3LNM0eR6W-8" value="&lt;div&gt;concours&lt;/div&gt;" style="edgeLabel;html=1;align=center;verticalAlign=middle;resizable=0;points=[];labelBackgroundColor=none;fontColor=#1A1A1A;" vertex="1" connectable="0" parent="0bxhLpbx-PE3LNM0eR6W-6">
          <mxGeometry x="-0.5667" relative="1" as="geometry">
            <mxPoint x="-15" y="-7" as="offset" />
          </mxGeometry>
        </mxCell>
        <mxCell id="0bxhLpbx-PE3LNM0eR6W-9" value="&lt;p style=&quot;margin:0px;margin-top:4px;text-align:center;text-decoration:underline;&quot;&gt;&lt;b&gt;partenaire1 : Partenaire &lt;/b&gt;&lt;/p&gt;&lt;hr size=&quot;1&quot; style=&quot;border-style:solid;&quot;&gt;&lt;p style=&quot;margin:0px;margin-left:8px;&quot;&gt;id = 333&lt;/p&gt;&lt;p style=&quot;margin:0px;margin-left:8px;&quot;&gt;&lt;br&gt;&lt;/p&gt;&lt;p style=&quot;margin:0px;margin-left:8px;&quot;&gt;nom = &quot;Tefal&quot;&lt;br&gt;&lt;/p&gt;&lt;p style=&quot;margin:0px;margin-left:8px;&quot;&gt;&lt;br&gt;&lt;/p&gt;&lt;p style=&quot;margin:0px;margin-left:8px;&quot;&gt;contribution =&amp;nbsp;&lt;/p&gt;&lt;p style=&quot;margin:0px;margin-left:8px;&quot;&gt;&lt;br&gt;&lt;/p&gt;&lt;p style=&quot;margin:0px;margin-left:8px;&quot;&gt;contraintes =&amp;nbsp;&lt;/p&gt;" style="verticalAlign=top;align=left;overflow=fill;html=1;whiteSpace=wrap;labelBackgroundColor=none;fillColor=#F5AB50;strokeColor=#909090;fontColor=#1A1A1A;" vertex="1" parent="1">
          <mxGeometry x="770" y="-670" width="220" height="180" as="geometry" />
        </mxCell>
        <mxCell id="0bxhLpbx-PE3LNM0eR6W-11" value="" style="endArrow=none;html=1;rounded=0;exitX=0.5;exitY=1;exitDx=0;exitDy=0;labelBackgroundColor=none;strokeColor=#182E3E;fontColor=default;entryX=0.5;entryY=0;entryDx=0;entryDy=0;" edge="1" parent="1" source="0bxhLpbx-PE3LNM0eR6W-1" target="0bxhLpbx-PE3LNM0eR6W-19">
          <mxGeometry width="50" height="50" relative="1" as="geometry">
            <mxPoint x="480" y="-410" as="sourcePoint" />
            <mxPoint x="210" y="-270" as="targetPoint" />
          </mxGeometry>
        </mxCell>
        <mxCell id="0bxhLpbx-PE3LNM0eR6W-20" value="concours" style="edgeLabel;html=1;align=center;verticalAlign=middle;resizable=0;points=[];strokeColor=#909090;fontColor=#1A1A1A;fillColor=#F5AB50;" vertex="1" connectable="0" parent="0bxhLpbx-PE3LNM0eR6W-11">
          <mxGeometry x="-0.7171" y="1" relative="1" as="geometry">
            <mxPoint as="offset" />
          </mxGeometry>
        </mxCell>
        <mxCell id="0bxhLpbx-PE3LNM0eR6W-21" value="personne" style="edgeLabel;html=1;align=center;verticalAlign=middle;resizable=0;points=[];strokeColor=#909090;fontColor=#1A1A1A;fillColor=#F5AB50;" vertex="1" connectable="0" parent="0bxhLpbx-PE3LNM0eR6W-11">
          <mxGeometry x="0.5686" relative="1" as="geometry">
            <mxPoint y="10" as="offset" />
          </mxGeometry>
        </mxCell>
        <mxCell id="0bxhLpbx-PE3LNM0eR6W-19" value="&lt;p style=&quot;margin:0px;margin-top:4px;text-align:center;text-decoration:underline;&quot;&gt;&lt;b&gt;Xavier: Personne&lt;br&gt;&lt;/b&gt;&lt;/p&gt;&lt;hr size=&quot;1&quot; style=&quot;border-style:solid;&quot;&gt;&lt;p style=&quot;margin:0px;margin-left:8px;&quot;&gt;id = 160&lt;/p&gt;&lt;p style=&quot;margin:0px;margin-left:8px;&quot;&gt;&lt;br&gt;&lt;/p&gt;&lt;p style=&quot;margin:0px;margin-left:8px;&quot;&gt;nom = &quot;Letréfle&quot;&lt;/p&gt;&lt;p style=&quot;margin:0px;margin-left:8px;&quot;&gt;&lt;br&gt;&lt;/p&gt;&lt;div&gt;&amp;nbsp; prenom = &quot;Xavier&quot;&lt;/div&gt;&lt;div&gt;&lt;br&gt;&lt;/div&gt;&lt;div&gt;&amp;nbsp; age = 55&lt;/div&gt;&lt;div&gt;&lt;br&gt;&lt;/div&gt;&lt;div&gt;&amp;nbsp; role = &quot;Jury&quot;&lt;/div&gt;" style="verticalAlign=top;align=left;overflow=fill;html=1;whiteSpace=wrap;labelBackgroundColor=none;fillColor=#F5AB50;strokeColor=#909090;fontColor=#1A1A1A;" vertex="1" parent="1">
          <mxGeometry x="-5" y="-530" width="430" height="190" as="geometry" />
        </mxCell>
        <mxCell id="0bxhLpbx-PE3LNM0eR6W-23" value="&lt;p style=&quot;margin:0px;margin-top:4px;text-align:center;text-decoration:underline;&quot;&gt;&lt;b&gt;cookPlace: Lieu&lt;br&gt;&lt;/b&gt;&lt;/p&gt;&lt;hr size=&quot;1&quot; style=&quot;border-style:solid;&quot;&gt;&lt;p style=&quot;margin:0px;margin-left:8px;&quot;&gt;nom = &quot;Château de l&#39;Estragon&quot;&amp;nbsp;&lt;/p&gt;&lt;p style=&quot;margin:0px;margin-left:8px;&quot;&gt;&lt;br&gt;&lt;/p&gt;&lt;p style=&quot;margin:0px;margin-left:8px;&quot;&gt;capacite = 350&lt;/p&gt;" style="verticalAlign=top;align=left;overflow=fill;html=1;whiteSpace=wrap;labelBackgroundColor=none;fillColor=#F5AB50;strokeColor=#909090;fontColor=#1A1A1A;" vertex="1" parent="1">
          <mxGeometry x="-660" y="-900" width="430" height="80" as="geometry" />
        </mxCell>
        <mxCell id="0bxhLpbx-PE3LNM0eR6W-86" value="&lt;p style=&quot;margin:0px;margin-top:4px;text-align:center;text-decoration:underline;&quot;&gt;&lt;b&gt;ratings: Classement&lt;br&gt;&lt;/b&gt;&lt;/p&gt;&lt;hr size=&quot;1&quot; style=&quot;border-style:solid;&quot;&gt;&lt;p style=&quot;margin:0px;margin-left:8px;&quot;&gt;nom = &quot;Château de l&#39;Estragon&quot;&amp;nbsp;&lt;/p&gt;&lt;p style=&quot;margin:0px;margin-left:8px;&quot;&gt;&lt;br&gt;&lt;/p&gt;&lt;p style=&quot;margin:0px;margin-left:8px;&quot;&gt;capacite = 350&lt;/p&gt;" style="verticalAlign=top;align=left;overflow=fill;html=1;whiteSpace=wrap;labelBackgroundColor=none;fillColor=#F5AB50;strokeColor=#909090;fontColor=#1A1A1A;" vertex="1" parent="1">
          <mxGeometry x="-660" y="-740" width="430" height="80" as="geometry" />
        </mxCell>
        <mxCell id="0bxhLpbx-PE3LNM0eR6W-87" value="" style="endArrow=none;html=1;rounded=0;strokeColor=#182E3E;fontColor=#1A1A1A;entryX=0;entryY=0.5;entryDx=0;entryDy=0;exitX=1;exitY=0.5;exitDx=0;exitDy=0;" edge="1" parent="1" source="0bxhLpbx-PE3LNM0eR6W-23" target="0bxhLpbx-PE3LNM0eR6W-1">
          <mxGeometry width="50" height="50" relative="1" as="geometry">
            <mxPoint x="-210" y="-720" as="sourcePoint" />
            <mxPoint x="-160" y="-770" as="targetPoint" />
          </mxGeometry>
        </mxCell>
        <mxCell id="0bxhLpbx-PE3LNM0eR6W-91" value="lieu" style="edgeLabel;html=1;align=center;verticalAlign=middle;resizable=0;points=[];strokeColor=#909090;fontColor=#1A1A1A;fillColor=#F5AB50;" vertex="1" connectable="0" parent="0bxhLpbx-PE3LNM0eR6W-87">
          <mxGeometry x="-0.5521" relative="1" as="geometry">
            <mxPoint x="-33" y="-3" as="offset" />
          </mxGeometry>
        </mxCell>
        <mxCell id="0bxhLpbx-PE3LNM0eR6W-90" value="" style="endArrow=none;html=1;rounded=0;strokeColor=#182E3E;fontColor=#1A1A1A;entryX=0;entryY=0.75;entryDx=0;entryDy=0;exitX=1;exitY=0.5;exitDx=0;exitDy=0;" edge="1" parent="1" source="0bxhLpbx-PE3LNM0eR6W-86" target="0bxhLpbx-PE3LNM0eR6W-1">
          <mxGeometry width="50" height="50" relative="1" as="geometry">
            <mxPoint x="-210" y="-720" as="sourcePoint" />
            <mxPoint x="-160" y="-770" as="targetPoint" />
          </mxGeometry>
        </mxCell>
        <mxCell id="0bxhLpbx-PE3LNM0eR6W-92" value="classement" style="edgeLabel;html=1;align=center;verticalAlign=middle;resizable=0;points=[];strokeColor=#909090;fontColor=#1A1A1A;fillColor=#F5AB50;" vertex="1" connectable="0" parent="0bxhLpbx-PE3LNM0eR6W-90">
          <mxGeometry x="-0.6677" y="-2" relative="1" as="geometry">
            <mxPoint y="-2" as="offset" />
          </mxGeometry>
        </mxCell>
      </root>
    </mxGraphModel>
  </diagram>
</mxfile>
